/* XPM */
static char *a4e3aa0e54284ff1cd548643653422ecCxAxnBLuUyQYPTju[] = {
/* columns rows colors chars-per-pixel */
"32 32 6 1 ",
"  c #40521D",
". c #F10404",
"X c #D76513",
"o c #658E17",
"O c #FCCF38",
"+ c #30E5E9",
/* pixels */
"oooooooooooooooooooooooooooooooo",
"oooooooooooooooooooooooooooooooo",
"oooooooooooooooooooooooooooXoooo",
"ooXXoooooooooooXXoooooooooXooooo",
"ooXXXooooooooooXXooooooooo  oooo",
"ooXXXXooooooooo  oooooooo    ooo",
"ooooXXXooooooo   oooooooo    ooo",
"ooooooooooooo     ooooooo     oo",
"ooooooooooooo  OOOOOOOooo   oooo",
"ooooooooooooOOOOO...OOOOoooooooo",
"oooooXXooOOO+++++++++++OOOoooooo",
"oooooXXOOOO++++++++++++OO.Oooooo",
"ooo  ooOO.OO++++++++++OO++OOoooo",
"o    ooOO++OOOO++++++OO++++OO oo",
"oo    ooO+++++OOOOOOOO++++OOOooo",
"ooo  oooOO++++++++++++++++Oooooo",
"oooooooooOO++++++++++++++Ooooooo",
"ooooooooooO++++++++++++++Ooooooo",
"ooooooooooOO+++++++++++OOOooooXo",
"oooooXoooo OO++++++++++OOooooXXo",
"oooooXooooo OO++++++++OOoooooXXo",
"ooooooooooooOOOO++++OOOOoooooooo",
"oooooooooooooOOOO++OOOooooo  ooo",
"o ooooooooooooOOOOOOOoooo   oooo",
"o  oo   oooooXXOOOOOoooo    oooo",
"   oo    oooooooooooooo    ooooo",
"  oooo   oooooo   oooooo   ooooo",
"oooooo oooooooo   oooooooooooooo",
"ooooooooooooooo   ooooXooooooooo",
"ooooooooooXXooo   oooXXXXooooooo",
"ooooooooooXooooo   ooXoooooooooo",
"oooooooooooooooooooooooooooooooo"
};
