/* XPM */
static char *b5935a8bb4e24598d8cc14c530a2df9cARX7GKHGVZjvQjXS[] = {
/* columns rows colors chars-per-pixel */
"32 32 8 1 ",
"  c black",
". c #40521D",
"X c #F10404",
"o c #D76513",
"O c #658E17",
"+ c #FCCF38",
"@ c #2C7ED9",
"# c #30E5E9",
/* pixels */
"OOOOOOOOOOOOOOOOOOOOOOOOOOOOOOOO",
"OOOOOOOOOOOOOOOOOOOOOOOOOOOOOOOO",
"OOOOOOOOOOOOOOOOOOOOOOOOOOOoOOOO",
"OOooOOOOOOOOOO ooOOOOOOOOOoOOOOO",
"OOoooOOOOOOOO   oOOOOOOOOO..OOOO",
"OOooooOOOOO     .OOOOOOOO....OOO",
"OOOOoooOOOO @@   OOOOOOOO....OOO",
"OOOOOOOOOO  @@ @  OOOOOOO.....OO",
"OOOOOOOOOO @@@ @@  OOOOOO...OOOO",
"OOOOOOOOO  @@@ @@@  OOOOOOOOOOOO",
"OOOOOooO  @@@@ @@@@  OOOOOOOOOOO",
"OOOOOooO @@@@@ @@@@@ OOOOO+OOOOO",
"OOO..OO @@@@@@ @@@@@@ OOOO++OOOO",
"O....O  @@@@@@ @@@@@@  OOOO++.OO",
"OO.... @@@@@@@ @@@@@@@  OO+++OOO",
"OOO.. @@@@@@@ @          O+OOOOO",
"OOOOO @@@@@@@ @ ####### @ OOOOOO",
"OOOO @@@@@@ @ @ ####X## @  OOOOO",
"OOOO @@@@@@@@ @ #X#X### @@  OOoO",
"OOOO @@@@@@@@ @ ##X#X## @@@  ooO",
"OOO  @@@@@@@@ @ ####### @@@@  oO",
"OO  @@@@@@@@@ @         @@@@@  O",
"O  @@@@@@@@@@ @@@@@@@@@@@@@@@   ",
"  @@@@@@@@@@@ @@@@@@@@@@@@@@@   ",
" @@@@@@@@@@@@ @@@@@@@@@@@@@@@@  ",
" @@@                           O",
"                           OOOOO",
"OOOOOO.OOOOOOOO...OOOOOOOOOOOOOO",
"OOOOOOOOOOOOOOO...OOOOoOOOOOOOOO",
"OOOOOOOOOOooOOO...OOOooooOOOOOOO",
"OOOOOOOOOOoOOOOO...OOoOOOOOOOOOO",
"OOOOOOOOOOOOOOOOOOOOOOOOOOOOOOOO"
};
