/* XPM */
static char *ac5f5739806f4bb9a956798858d821beBVjmukeFpo4HuAkI[] = {
/* columns rows colors chars-per-pixel */
"32 32 3 1 ",
"  c #40521D",
". c #D76513",
"X c #658E17",
/* pixels */
"XXXXXXXXXXXXXXXXXXXXXXXXXXXXXXXX",
"XXXXXXXXXXXXXXXXXXXXXXXXXXXXXXXX",
"XXXXXXXXXXXXXXXXXXXXXXXXXXX.XXXX",
"XX..XXXXXXXXXXX..XXXXXXXXX.XXXXX",
"XX...XXXXXXXXXX..XXXXXXXXX  XXXX",
"XX....XXXXXXXXX  XXXXXXXX    XXX",
"XXXX...XXXXXXX   XXXXXXXX    XXX",
"XXXXXXXXXXXXX     XXXXXXX     XX",
"XXXXXXXXXXXXX     XXXXXXX   XXXX",
"XXXXXXXXXXXXXXXX XXXXXXXXXXXXXXX",
"XXXXX..XXXXXXXXXXXXXXXXXXXXXXXXX",
"XXXXX...XXXXXXXXXXXXXXXXXXXXXXXX",
"XXX  XXXXXXXXXXXXXXXXXXXXXXXXXXX",
"X    XXXXX..XXXXXXXXXXXX      XX",
"XX    XXXX..XXXXXXXXXX    X  XXX",
"XXX  XXXXXXXXXXXX..XXX    XXXXXX",
"XXXXXXXXXXX XXXXX.XXX.   XXXXXXX",
"XXXXXXXXXXX XXXXXXXXXXXXXXXXXXXX",
"XXXXXXXXXXX    XXXXXXXXXXXXXXX.X",
"XXXXX.XXXX     XXXXXXXXXXXXXX..X",
"XXXXX.XXXXX  XXXXXXXXXXXXXXXX..X",
"XXXXXXXXXXXXXXXXXXXXXXXXXXXXXXXX",
"XXXXXXXXXXXXXXXXX..XXXXXXXX  XXX",
"X XXXXXXXXXXXX.....XXXXXX   XXXX",
"X  XX   XXXXX..XXXXXXXXX    XXXX",
"   XX    XXXXXXXXXXXXXX    XXXXX",
"  XXXX   XXXXXX   XXXXXX   XXXXX",
"XXXXXX XXXXXXXX   XXXXXXXXXXXXXX",
"XXXXXXXXXXXXXXX   XXXX.XXXXXXXXX",
"XXXXXXXXXX..XXX   XXX....XXXXXXX",
"XXXXXXXXXX.XXXXX   XX.XXXXXXXXXX",
"XXXXXXXXXXXXXXXXXXXXXXXXXXXXXXXX"
};
