/* XPM */
static char *f105aad90bbf4cc0e888b2daa7132d4c6D9o7seUu9TDEleh[] = {
/* columns rows colors chars-per-pixel */
"32 32 5 1 ",
"  c black",
". c #1B1A1A",
"X c #FCCF38",
"o c #30E5E9",
"O c #F5ECEC",
/* pixels */
"...............................X",
"X...........................XXXX",
"XXXX........XXXX........XXXXX...",
"...XXXX....XXOOXX..XXXXXX.......",
"......XXXX.XOOOOXXXX............",
".........XXXOOOOXX.............X",
"XXXXXXXXXXXOOOOOOXXXXXXXXXXXXXXX",
"...........XOOOOX.....X.........",
"...........XOOOOX...............",
"...........XXOOXX...............",
"............XXXX................",
"................................",
"................................",
"................................",
".     .................     ....",
"..Ooo...................Ooo.....",
"..Ooo...................Ooo.....",
"..Ooo...................Ooo.....",
"................................",
"................................",
"......... ......................",
"........  ......................",
"........  ......................",
"........                 .......",
"................................",
"................................",
"................................",
"................................",
"................................",
"................................",
"................................",
"................................"
};
