/* XPM */
static char *e1a48eb462234717fc554fc01c3e91eaLi1RW8o9Vd0r7gYY[] = {
/* columns rows colors chars-per-pixel */
"32 32 4 1 ",
"  c #40521D",
". c #F10404",
"X c #D76513",
"o c #658E17",
/* pixels */
"................................",
"..... .......           ........",
".............           ........",
"..... ... ...        ...........",
"... ........... .     .... .....",
".....  ...... .    o  .. .......",
"..... .  ..      o     .. . ....",
"..... ...  ..    o o  ..........",
".   . ..     .          .... ...",
".     . .    . . .   .     .....",
".  o   .  ..       ..    ..   ..",
"  o       ...    . ..   ...    .",
".     .     .   .. ..          .",
".    .. .. .   .   .. ....     .",
".  X    .. .   .               .",
".  X    ... .   . ..   o  .    .",
".  X  .      . ..     o        .",
".       ..    .     . .        .",
".  o       X    XXX       o    .",
".     .  . X  XX      X  .    ..",
"....X .X   X   ... . .XX .......",
"....X..XX .  .        XX  . ....",
"..X.X...X       .. . X  ........",
"....X.. X .    .      ..........",
".... ... .   ......   ... ......",
"...X....               .........",
"....... ...   ooo    ... .......",
".... ......    o     ...........",
"...........          ...........",
"............         ...........",
"...........          ...........",
"................................"
};
